HIERARCHY
ROOT Hips
{
     OFFSET 1.88212 96.90440 -13.34250
     CHANNELS 6 Xposition Yposition Zposition Zrotation Xrotation Yrotation
     JOINT Spine
     {
          OFFSET 0.00000 11.89050 0.00000
          CHANNELS 3 Zrotation Xrotation Yrotation
          JOINT Spine1
          {
               OFFSET -0.00000 25.65740 0.12766
               CHANNELS 3 Zrotation Xrotation Yrotation
               JOINT HEad
               {
                    OFFSET 0.00000 8.73416 0.01134
                    CHANNELS 3 Zrotation Xrotation Yrotation
                    End Site
                    {
                         OFFSET -0.29000 12.77420 2.51395
                    }
               }
               JOINT LeftShoulder1
               {
                    OFFSET 8.99000 -0.36225 -0.22000
                    CHANNELS 3 Zrotation Xrotation Yrotation
                    JOINT LeftArm
                    {
                         OFFSET 10.28270 -0.00338 0.32212
                         CHANNELS 3 Zrotation Xrotation Yrotation
                         JOINT LeftForeArm
                         {
                              OFFSET 32.76690 0.09914 -1.42434
                              CHANNELS 3 Zrotation Xrotation Yrotation
                              JOINT LeftHand
                              {
                                   OFFSET 27.56430 0.08536 1.02216
                                   CHANNELS 3 Zrotation Xrotation Yrotation
                                   End Site
                                   {
                                        OFFSET 16.74430 -0.60000 1.50291
                                   }
                              }
                         }
                    }
               }
               JOINT RightShoulder
               {
                    OFFSET -8.99000 -0.36225 -0.22000
                    CHANNELS 3 Zrotation Xrotation Yrotation
                    JOINT RightArm
                    {
                         OFFSET -10.28270 -0.00338 0.32212
                         CHANNELS 3 Zrotation Xrotation Yrotation
                         JOINT RightForeArm
                         {
                              OFFSET -32.89710 0.09914 -1.42434
                              CHANNELS 3 Zrotation Xrotation Yrotation
                              JOINT RightHand
                              {
                                   OFFSET -27.49210 0.08536 1.02216
                                   CHANNELS 3 Zrotation Xrotation Yrotation
                                   End Site
                                   {
                                        OFFSET -16.63120 -0.60000 1.50291
                                   }
                              }
                         }
                    }
               }
          }
     }
     JOINT LeftUpLeg
     {
          OFFSET 8.94580 -8.66707 0.10165
          CHANNELS 3 Zrotation Xrotation Yrotation
          JOINT LeftLeg
          {
               OFFSET 0.00000 -44.42270 1.37270
               CHANNELS 3 Zrotation Xrotation Yrotation
               JOINT LeftFoot
               {
                    OFFSET -0.25355 -42.09240 -1.46059
                    CHANNELS 3 Zrotation Xrotation Yrotation
                    JOINT LeftToes
                    {
                         OFFSET -0.04000 -4.41509 8.49910
                         CHANNELS 3 Zrotation Xrotation Yrotation
                         End Site
                         {
                              OFFSET 0.08000 -0.04745 9.77979
                         }
                    }
               }
          }
     }
     JOINT RightUpLeg
     {
          OFFSET -8.94580 -8.66707 0.10165
          CHANNELS 3 Zrotation Xrotation Yrotation
          JOINT RightLeg
          {
               OFFSET 0.00000 -44.42270 1.37270
               CHANNELS 3 Zrotation Xrotation Yrotation
               JOINT RightFoot
               {
                    OFFSET 0.25355 -42.09240 -1.46059
                    CHANNELS 3 Zrotation Xrotation Yrotation
                    JOINT RightToes
                    {
                         OFFSET 0.04000 -4.41509 8.49910
                         CHANNELS 3 Zrotation Xrotation Yrotation
                         End Site
                         {
                              OFFSET -0.08000 -0.13745 9.77979
                         }
                    }
               }
          }
     }
}
MOTION
Frames: 20
Frame Time: 0.01667
-40.64841 88.06416 299.50717 5.32126 -12.43048 35.84901 5.31110 20.63010 -10.75171 -0.02379 0.01606 -0.02413 -7.04809 -4.73937 21.15077 -11.70653 13.32168 3.09493 -132.85725 -58.36552 -111.01727 -20.40063 61.40147 -92.03870 21.51827 4.34539 -9.27294 12.68695 14.18407 -2.64898 81.58021 4.38873 75.69466 9.64183 31.67430 101.18245 18.31987 11.39646 3.71841 27.98796 -3.14206 -20.28155 -35.90255 -4.88316 73.52341 3.02033 -0.04602 0.02087 8.68074 -21.24121 -61.08572 -14.04140 2.73538 -1.29221 29.53998 20.93495 -26.41077 -30.00545 -0.00114 0.00340 7.93333 -45.25434 27.77369 
-40.24657 87.99004 299.52679 4.99909 -12.48130 35.32051 6.24117 20.17164 -7.88995 -0.02058 0.01410 -0.02441 -7.25690 -5.21228 19.30125 -11.74816 13.77451 0.57113 -130.05247 -58.06906 -108.68020 -20.08856 60.26481 -91.32585 21.98089 2.83734 -9.46535 12.38342 13.68522 -4.82811 81.61587 4.03102 75.07324 9.15403 31.69290 102.12646 18.18021 11.06903 3.73712 28.78669 -2.97116 -21.21337 -36.15601 -5.51534 72.64621 0.41204 -0.05044 -0.00244 11.39049 -20.98701 -59.29765 -14.06589 1.67238 -2.46195 29.46181 23.15461 -25.52301 -30.00666 -0.00280 0.00252 7.77043 -46.49761 27.06040 
-39.87003 87.90157 299.55008 4.76868 -12.52552 34.94959 6.84098 19.95197 -5.41748 -0.01784 0.01229 -0.02376 -7.23578 -5.55554 17.51836 -11.61327 14.00978 -1.52511 -126.75346 -57.52515 -105.94814 -19.67958 58.90197 -90.68892 21.44748 4.31947 -10.02203 12.30703 13.14676 -6.64083 81.64847 3.51651 74.39005 8.84085 31.80206 103.15047 18.20431 11.17228 3.87362 29.28157 -2.92233 -22.00429 -36.51888 -5.97776 71.84491 -2.05034 -0.04092 -0.01036 14.18103 -20.90854 -57.69900 -14.18179 0.62077 -3.46845 29.58986 25.29741 -24.99243 -30.00791 -0.00421 0.00176 7.44166 -47.77299 26.25223 
-39.52265 87.78448 299.56387 4.63340 -12.55554 34.72749 7.11559 19.89208 -3.30336 -0.01530 0.01121 -0.02257 -6.80069 -4.64153 14.74052 -11.56726 14.09052 -2.93963 -116.01685 -54.84102 -98.30974 -16.77167 53.71775 -90.25768 21.66055 3.67133 -10.16682 12.42407 12.58787 -8.08569 81.67081 2.84674 73.68877 8.68229 31.94858 104.18233 18.13424 10.99106 3.85222 29.56261 -2.98259 -22.64327 -36.90213 -6.22294 71.13807 -4.46931 -0.03277 -0.01274 16.98004 -20.91626 -56.33983 -14.40991 -0.37499 -4.31067 30.00515 27.35576 -24.85437 -30.00099 -0.00353 0.00061 6.89709 -49.11054 25.38582 
-39.20827 87.63670 299.55997 4.59167 -12.56462 34.64489 7.09278 19.94713 -1.52870 -0.01294 0.01033 -0.02118 -6.12742 -3.80536 12.18253 -11.33668 14.02389 -4.08376 -108.92512 -52.58446 -93.26990 -15.04528 49.83466 -89.99336 21.24168 4.71700 -10.47585 12.70019 12.01688 -9.17948 81.68016 2.05441 73.00070 8.64483 32.10398 105.17567 18.15438 11.05723 3.90522 29.70330 -3.14182 -23.12387 -37.27158 -6.24551 70.53732 -6.89913 -0.02574 -0.01278 19.75375 -20.99091 -55.24442 -14.76955 -1.29088 -4.99010 30.63760 29.29957 -25.06010 -30.00029 -0.00361 -0.00003 6.25637 -50.49781 24.49780 
-38.92461 87.46554 299.53607 4.63955 -12.54516 34.69548 6.80849 20.08478 -0.07839 -0.01082 0.00946 -0.01975 -5.27133 -3.05615 9.85475 -10.93295 13.82640 -5.04287 -104.06637 -50.76651 -89.76848 -14.00223 46.82117 -89.81973 21.19632 4.49680 -10.48576 13.09476 11.44561 -9.94753 81.68615 1.18240 72.34632 8.69458 32.25156 106.10023 18.11087 10.94549 3.86810 29.56625 -3.49050 -22.36571 -37.55033 -5.22869 69.27917 -9.39538 -0.01946 -0.01146 22.47467 -21.12580 -54.43954 -15.25363 -2.14587 -5.51285 31.50680 31.05084 -25.62973 -30.00097 -0.00254 -0.00060 5.52854 -51.90417 23.65369 
-38.67251 87.28252 299.49847 4.76717 -12.49137 34.86833 6.30247 20.28052 1.06825 -0.00895 0.00863 -0.01831 -4.28784 -2.39902 7.76625 -10.42048 13.52466 -5.81481 -100.60590 -49.24545 -87.23409 -13.34159 44.42730 -89.67493 20.75255 5.22330 -10.63084 13.56905 10.88790 -10.42364 81.70035 0.28054 71.73574 8.79790 32.38576 106.94610 18.13330 10.95706 3.87664 29.23962 -3.97664 -20.49014 -37.71247 -3.28408 67.42855 -11.98562 -0.01348 -0.00942 25.12025 -21.31273 -53.92315 -15.75884 -2.98542 -4.78851 33.02250 32.08116 -27.62051 -30.00053 -0.00202 -0.00094 4.79833 -53.30534 22.89912 
-38.45745 87.09785 299.46399 4.95780 -12.40549 35.14732 5.61935 20.51843 1.93782 -0.00729 0.00790 -0.01684 -3.22743 -1.83326 5.92261 -9.84342 13.14463 -6.39323 -98.06732 -47.91136 -85.35896 -12.90198 42.47181 -89.51864 20.56640 5.20545 -10.61765 14.09480 10.35440 -10.64673 81.72345 -0.60035 71.17426 8.92701 32.49451 107.70872 18.13902 10.86340 3.82828 28.94699 -4.48664 -18.70267 -37.82540 -1.32573 65.83066 -14.65066 -0.00755 -0.00716 27.68489 -21.55222 -53.67105 -16.22964 -3.73901 -2.93879 35.03133 32.33384 -30.78566 -30.00021 -0.00168 -0.00110 4.16344 -54.69400 22.27631 
-38.28268 86.92081 299.44861 5.20090 -12.28898 35.51485 4.79338 20.78848 2.56129 -0.00578 0.00726 -0.01536 -2.13327 -1.35236 4.32475 -9.23018 12.70713 -6.78240 -96.16870 -46.70270 -83.95261 -12.58523 40.86052 -89.35198 20.17349 5.72894 -10.69681 14.66121 9.84836 -10.66076 81.73767 -1.41018 70.66196 9.05358 32.56236 108.39323 18.21135 10.85382 3.79992 28.66930 -5.01787 -17.00892 -38.00835 0.59897 64.48653 -17.25810 -0.00185 -0.00638 30.14297 -21.93775 -53.62989 -16.79132 -4.40910 -1.19382 37.00906 32.46402 -33.87127 -30.00021 -0.00145 -0.00110 3.64715 -56.03727 21.80050 
-38.14464 86.75469 299.46167 5.48481 -12.14684 35.95190 3.85844 21.08410 2.97110 -0.00438 0.00672 -0.01386 -1.04073 -0.94538 2.96868 -8.59505 12.22864 -6.99510 -94.74185 -45.60270 -82.88943 -12.34853 39.53094 -89.18108 19.98245 5.81287 -10.68482 15.26376 9.36969 -10.50744 81.72181 -2.11116 70.19881 9.15507 32.57590 109.00333 18.28278 10.79974 3.72634 28.39490 -5.56290 -15.41672 -38.20475 2.48697 63.38634 -19.82123 0.00346 -0.00471 32.49347 -22.42364 -53.77662 -17.40088 -4.98639 0.44707 38.91826 32.46657 -36.83865 -30.00031 -0.00123 -0.00100 3.24203 -57.30703 21.44937 
-38.03441 86.59784 299.50635 5.79822 -11.98537 36.43893 2.84711 21.40002 3.19956 -0.00307 0.00627 -0.01241 0.02134 -0.59907 1.84622 -7.94569 11.72463 -7.05337 -93.68196 -44.61435 -82.07904 -12.17140 38.45426 -89.01502 19.69765 6.18981 -10.73106 15.89266 8.92032 -10.22269 81.66697 -2.68413 69.78632 9.21598 32.53603 109.54074 18.37748 10.80310 3.65700 28.11316 -6.11582 -13.93579 -38.39784 4.32496 62.51705 -22.34104 0.00753 -0.00297 34.74992 -22.99604 -54.09417 -18.01456 -5.46407 1.98784 40.72554 32.34156 -39.65409 -30.00040 -0.00103 -0.00088 2.91464 -58.47634 21.17956 
-37.94209 86.44937 299.58179 6.12934 -11.81134 36.95717 1.79193 21.73084 3.27660 -0.00177 0.00583 -0.01103 1.02926 -0.29994 0.94578 -7.28345 11.20886 -6.98175 -92.91269 -43.74501 -81.45278 -12.05098 37.59246 -88.85431 19.55477 6.29414 -10.73267 16.53479 8.50353 -9.83537 81.57470 -3.12964 69.42735 9.23118 32.45434 110.00159 18.42868 10.78544 3.56512 27.82255 -6.66825 -12.57598 -38.58398 6.09896 61.86384 -24.82271 0.01063 -0.00137 36.93084 -23.63867 -54.56337 -18.60428 -5.84040 3.43151 42.40558 32.09788 -42.28554 -30.00044 -0.00084 -0.00079 2.63185 -59.53373 20.94748 
-37.85838 86.30898 299.68567 6.46739 -11.63039 37.48860 0.72211 22.07048 3.22985 -0.00062 0.00551 -0.00978 1.96417 -0.03590 0.25365 -6.61457 10.69455 -6.80891 -92.36224 -42.99739 -80.95554 -11.98011 36.90628 -88.70000 19.35270 6.55774 -10.77860 17.17537 8.12263 -9.37602 81.45258 -3.45470 69.12521 9.20372 32.34708 110.38212 18.44656 10.80497 3.49072 27.52637 -7.21012 -11.34499 -38.75853 7.79799 61.40892 -27.27953 0.01294 0.00016 39.04381 -24.32314 -55.16112 -19.15455 -6.11807 4.77997 43.93558 31.75223 -44.70371 -30.00042 -0.00071 -0.00074 2.37042 -60.48166 20.72259 
-37.77588 86.17685 299.81595 6.80266 -11.44766 38.01658 -0.33649 22.41269 3.08400 0.00038 0.00527 -0.00868 2.81108 0.20361 -0.24535 -5.94511 10.19334 -6.56001 -91.96799 -42.36804 -80.54622 -11.95017 36.34972 -88.55323 19.22430 6.66481 -10.80490 17.80269 7.77968 -8.87239 81.30734 -3.67099 68.88152 9.14066 32.22629 110.68243 18.39665 10.82037 3.42715 27.23013 -7.73094 -10.24888 -38.91420 9.41296 61.12943 -29.72911 0.01450 0.00163 41.09729 -25.00972 -55.84577 -19.65691 -6.30264 6.03376 45.29694 31.32685 -46.88648 -30.00039 -0.00062 -0.00073 2.12407 -61.33361 20.49441 
-37.68847 86.05336 299.97043 7.12690 -11.26845 38.52641 -1.36064 22.75173 2.85999 0.00129 0.00508 -0.00776 3.55811 0.42773 -0.56686 -5.27949 9.71532 -6.25791 -91.68800 -41.85377 -80.19974 -11.95107 35.89293 -88.41908 19.04032 6.86863 -10.85770 18.40255 7.47646 -8.34897 81.15078 -3.78969 68.69594 9.04870 32.09800 110.90976 18.30350 10.86747 3.39939 26.93968 -8.22095 -9.29446 -39.04548 10.93461 60.99984 -32.18798 0.01531 0.00295 43.10685 -25.66462 -56.56229 -20.10701 -6.40113 7.19235 46.47933 30.84662 -48.82187 -30.00037 -0.00059 -0.00073 1.90754 -62.10421 20.27757 
-37.59003 85.93834 300.14136 7.43383 -11.09613 39.00787 -2.32985 23.08180 2.57214 0.00212 0.00494 -0.00702 4.19588 0.64333 -0.72622 -4.62144 9.26817 -5.92312 -91.50388 -41.45972 -79.90645 -11.98178 35.52308 -88.30012 18.88877 6.97947 -10.88984 18.95457 7.21369 -7.82639 81.00262 -3.81930 68.56729 8.93538 31.96257 111.07304 18.17121 10.91725 3.39759 26.70038 -8.62691 -8.48451 -39.39172 11.93342 61.00309 -30.13867 -0.01535 -0.00272 40.98726 -26.24326 -57.27204 -20.50794 -6.42488 8.25217 47.48384 30.33690 -50.50903 -30.00036 -0.00061 -0.00073 1.74965 -62.80320 20.10361 
-37.47368 85.83302 300.32550 7.71943 -10.93535 39.44911 -3.22798 23.39897 2.23554 0.00283 0.00481 -0.00645 4.71807 0.85506 -0.73796 -3.97981 8.85511 -5.57187 -91.40658 -41.19520 -79.66119 -12.05003 35.24676 -88.19473 18.70643 7.13111 -10.92716 19.44262 6.98752 -7.32324 80.87821 -3.76442 68.49062 8.80979 31.81837 111.17961 18.03851 10.97998 3.42936 26.51602 -8.97884 -7.82642 -39.59460 12.92347 61.07101 -28.32827 -0.01421 -0.00251 38.90950 -26.70459 -57.90519 -20.86311 -6.38259 9.21509 48.31734 29.81958 -51.95311 -30.00037 -0.00068 -0.00075 1.66227 -63.44058 19.99092 
-37.33564 85.74010 300.52502 7.98082 -10.79196 39.83823 -4.04384 23.69935 1.86556 0.00336 0.00466 -0.00598 5.12277 1.06605 -0.61586 -3.36946 8.47381 -5.21512 -91.37812 -41.06782 -79.45280 -12.17184 35.07116 -88.09344 18.56470 7.20283 -10.95232 19.86617 6.78847 -6.85407 80.77586 -3.63062 68.45452 8.68382 31.66403 111.23350 17.92137 11.03217 3.48298 26.37349 -9.29688 -7.32941 -39.75223 13.86832 61.23232 -26.67398 -0.01238 -0.00213 36.91730 -27.03959 -58.42354 -21.17089 -6.27982 10.08767 48.99033 29.31256 -53.16630 -30.00039 -0.00078 -0.00077 1.62256 -64.03101 19.92861 
-37.17607 85.66210 300.74319 8.21563 -10.67100 40.16571 -4.77243 23.97784 1.47596 0.00363 0.00455 -0.00563 5.41317 1.27819 -0.37289 -2.81045 8.12162 -4.86402 -91.38309 -41.07931 -79.26322 -12.36155 34.99260 -87.98256 18.43131 7.26821 -10.99789 20.23098 6.60791 -6.42873 80.68690 -3.42525 68.44640 8.56916 31.50040 111.23770 17.84002 11.08235 3.55910 26.26167 -9.59468 -7.00051 -39.91722 14.75253 61.51593 -25.13472 -0.01113 -0.00139 35.04146 -27.22331 -58.79021 -21.42598 -6.12295 10.87764 49.51711 28.82962 -54.16883 -30.00042 -0.00090 -0.00078 1.58229 -64.59203 19.88439 
-36.99720 85.60051 300.98138 8.42212 -10.57497 40.42530 -5.41525 24.22898 1.07772 0.00369 0.00440 -0.00538 5.59598 1.49209 -0.02158 -2.31561 7.80122 -4.52852 -91.38257 -41.22106 -79.07925 -12.62943 34.98594 -87.84559 18.34162 7.26652 -11.06341 20.53918 6.44504 -6.04918 80.60591 -3.16186 68.45653 8.47141 31.33057 111.20065 17.79535 11.12811 3.64072 26.17562 -9.88544 -6.84002 -40.11784 15.57915 61.94701 -23.69360 -0.01012 -0.00050 33.30828 -27.21894 -58.98449 -21.62431 -5.92069 11.59144 49.91428 28.37971 -54.98616 -30.00047 -0.00101 -0.00076 1.48618 -65.13934 19.81732 
